<svg width="2379" height="2105" viewBox="0 0 2379 2105" fill="none" xmlns="http://www.w3.org/2000/svg">
<path d="M651.398 29.9214C601.698 34.9214 568.098 54.9214 550.298 90.1214C545.298 100.021 543.298 105.721 538.298 124.421C525.098 173.821 86.098 1788.02 81.898 1802.42C47.398 1922.82 42.698 2005.32 68.098 2045.62C76.598 2059.12 91.098 2069.12 106.898 2072.32C133.598 2077.72 165.198 2077.92 191.698 2072.82C204.798 2070.32 146.898 2090.32 693.898 1899.72C948.798 1810.82 1163.8 1736.02 1171.6 1733.52L1185.8 1728.82L1642.1 1878.82C1893.1 1961.42 2107.4 2032.22 2118.4 2036.32C2170.5 2055.52 2197.4 2061.92 2227.4 2061.92C2250.1 2061.92 2268.7 2058.52 2281.9 2052.12C2292.4 2047.02 2304.9 2034.52 2310.6 2023.42C2332.6 1980.82 2330.4 1914.12 2303.3 1806.92C2243.8 1571.62 1892.1 182.221 1889.8 173.421C1873.8 112.421 1841.9 68.0214 1797.9 45.9214C1777.8 35.8214 1753.5 30.1214 1726.4 29.2214C1700.6 28.4214 1682.3 32.1214 1660.4 42.8214C1624.7 60.3214 1595.8 92.3214 1570.9 141.921C1558.9 165.921 1553 181.521 1534.9 237.921C1513 306.021 1489.6 376.021 1488.9 375.221C1488.2 374.421 1435.8 272.821 1392.7 188.421C1360.3 125.121 1344.8 101.521 1319.3 76.9214C1304.3 62.4214 1293.8 54.9214 1276.8 46.3214C1238.1 26.9214 1186.2 23.5214 1142.4 37.6214C1091 54.1214 1044.2 95.3214 1008.2 155.921C1005.4 160.621 982.798 204.021 957.898 252.421C893.898 377.021 894.498 375.921 893.698 375.121C892.598 373.921 817.898 145.921 814.298 132.521C812.298 125.421 809.398 116.321 807.798 112.221C789.898 67.1214 757.098 40.2214 709.198 31.4214C698.698 29.4214 664.798 28.6214 651.398 29.9214ZM1292.7 475.721L1392.8 670.421L1292.6 975.121C1237.5 1142.62 1192.1 1280.02 1191.8 1280.32C1191.5 1280.62 1146.1 1143.52 1091 975.821L990.598 670.721L992.798 666.021C996.498 658.421 1186 289.721 1188.6 285.121C1189.9 282.821 1191.3 280.921 1191.8 280.921C1192.2 280.921 1237.7 368.521 1292.7 475.721ZM1820.4 796.421C1942.6 1278.82 1931.9 1236.32 1931 1235.32C1930 1234.12 1630.9 652.121 1630.9 651.321C1630.9 650.521 1716.1 391.621 1716.7 390.421C1717.1 389.821 1717.4 389.821 1717.6 390.421C1717.7 391.021 1764 573.621 1820.4 796.421ZM717.398 544.421C736.598 602.721 752.198 650.921 752.198 651.521C752.198 652.921 479.698 1183.02 479.198 1182.52C478.998 1182.32 524.398 1014.52 580.098 809.621C635.798 604.721 681.698 437.321 681.998 437.721C682.298 438.121 698.298 486.121 717.398 544.421ZM947.798 1244.82C1001.8 1408.92 1045.7 1543.42 1045.4 1543.82C1044.5 1544.62 432.498 1757.82 432.098 1757.42C431.798 1757.12 829.598 982.421 843.598 956.121C846.598 950.421 849.198 945.921 849.398 946.121C849.498 946.321 893.798 1080.72 947.798 1244.82ZM1740.4 1346.32C1853.4 1566.22 1945.8 1746.42 1945.5 1746.62C1945.3 1746.82 1842.4 1713.22 1716.8 1671.92C1346.6 1550.12 1336.9 1546.92 1336.9 1545.62C1336.9 1544.72 1530.5 955.121 1533.4 947.021C1533.7 946.221 1534.1 945.821 1534.4 946.021C1534.6 946.321 1627.3 1126.42 1740.4 1346.32Z" fill="white"/>
</svg>
