<svg width="2379" height="2105" fill="none" xmlns="http://www.w3.org/2000/svg"><path d="M651.398 29.921c-49.7 5-83.3 25-101.1 60.2-5 9.9-7 15.6-12 34.3-13.2 49.4-452.2 1663.599-456.4 1677.999-34.5 120.4-39.2 202.9-13.8 243.2 8.5 13.5 23 23.5 38.8 26.7 26.7 5.4 58.3 5.6 84.8.5 13.1-2.5-44.8 17.5 502.2-173.1 254.9-88.9 469.902-163.7 477.702-166.2l14.2-4.7 456.3 150c251 82.6 465.3 153.4 476.3 157.5 52.1 19.2 79 25.6 109 25.6 22.7 0 41.3-3.4 54.5-9.8 10.5-5.1 23-17.6 28.7-28.7 22-42.6 19.8-109.3-7.3-216.5-59.5-235.3-411.2-1624.699-413.5-1633.499-16-61-47.9-105.4-91.9-127.5-20.1-10.1-44.4-15.8-71.5-16.7-25.8-.8-44.1 2.9-66 13.6-35.7 17.5-64.6 49.5-89.5 99.1-12 24-17.9 39.6-36 96-21.9 68.1-45.3 138.1-46 137.3-.7-.8-53.1-102.4-96.2-186.8-32.4-63.3-47.9-86.9-73.4-111.5-15-14.5-25.5-22-42.5-30.6-38.7-19.4-90.6-22.8-134.4-8.7-51.4 16.5-98.2 57.7-134.2 118.3-2.8 4.7-25.402 48.1-50.302 96.5-64 124.6-63.4 123.5-64.2 122.7-1.1-1.2-75.8-229.2-79.4-242.6-2-7.1-4.9-16.2-6.5-20.3-17.9-45.1-50.7-72-98.6-80.8-10.5-2-44.4-2.8-57.8-1.5zm641.302 445.8l100.1 194.7-100.2 304.7c-55.1 167.499-100.5 304.899-100.8 305.199-.3.3-45.7-136.8-100.8-304.499l-100.402-305.1 2.2-4.7c3.7-7.6 193.202-376.3 195.802-380.9 1.3-2.3 2.7-4.2 3.2-4.2.4 0 45.9 87.6 100.9 194.8zm527.7 320.7c122.2 482.399 111.5 439.899 110.6 438.899-1-1.2-300.1-583.199-300.1-583.999 0-.8 85.2-259.7 85.8-260.9.4-.6.7-.6.9 0 .1.6 46.4 183.2 102.8 406zm-1103.002-252c19.2 58.3 34.8 106.5 34.8 107.1 0 1.4-272.5 531.499-273 530.999-.2-.2 45.2-168 100.9-372.899 55.7-204.9 101.6-372.3 101.9-371.9.3.4 16.3 48.4 35.4 106.7zm230.4 700.399c54.002 164.1 97.902 298.6 97.602 299-.9.8-612.902 214-613.302 213.6-.3-.3 397.5-774.999 411.5-801.299 3-5.7 5.6-10.2 5.8-10 .1.2 44.4 134.599 98.4 298.699zm792.602 101.5c113 219.9 205.4 400.1 205.1 400.3-.2.2-103.1-33.4-228.7-74.7-370.2-121.8-379.9-125-379.9-126.3 0-.9 193.6-590.499 196.5-598.599.3-.8.7-1.2 1-1 .2.3 92.9 180.399 206 400.299z" fill="#fff"/></svg>